<svg xmlns="http://www.w3.org/2000/svg" xml:space="preserve" width="1500" height="494" data-id="lg_WetARBxMTeA1GbTRev" data-version="1"><g data-padding="20"><g transform="translate(10 8.821)scale(.96429)"><path fill="#22586a" d="m995.115 358.24-1.597-225.158-2.06-2.781L765.116-.2h-4.12l-226.6 130.501-2.06 3.245 1.493 224.952 1.34 4.635L762.076 494.2h4.12l227.527-131.17Zm-10.867-222.686 1.185 215.27-220.266-126.226V9.07ZM760.018 9.07v215.579L597.02 319.358l-54.693 31.363-.979-215.218Zm4.068 475.603-218-126.433 3.193-1.854 214.292-124.27L959.425 344.85l23.175 13.39Z"/><path fill="#22586a" d="m619.731 237.524-3.914-2.369v-83.533l1.082-2.369 82.606-48.719 3.862 2.369v83.585l-1.081 2.369Zm1.236-84.254v77.147l77.25-45.474v-77.199Zm306.425 170.156c-1.545 0-2.575-1.236-2.575-2.781v-165.83l-103-58.195v160.526c0 1.545-1.03 2.78-2.575 2.78s-2.575-1.235-2.575-2.78V91.882l4.223-2.42 107.687 61.285 1.39 2.42v167.478c0 1.545-1.03 2.781-2.575 2.781m-12.516 79.671-.72-.155-227.116-131.17a1.39 1.39 0 1 1 1.34-2.421l227.217 131.17a1.39 1.39 0 0 1-.67 2.575m-75.086 44.651-.721-.155-227.167-131.17a1.39 1.39 0 1 1 1.39-2.369L840.46 445.172a1.39 1.39 0 0 1-.618 2.575"/><path fill="#22586a" d="M614.272 403.037a1.39 1.39 0 0 1-.67-2.575L839.328 269.29a1.288 1.288 0 0 1 1.854.515c.412.618.155 1.493-.515 1.854L614.993 402.882Zm77.868 45.018a1.39 1.39 0 0 1-.72-2.575l225.724-131.223a1.34 1.34 0 0 1 1.854.515c.36.67.154 1.545-.515 1.906L692.81 447.848ZM870.742 293.09c-1.545 0-2.575-1.236-2.575-2.781V124.635c0-1.546 1.03-2.782 2.575-2.782s2.575 1.236 2.575 2.781V290.31c0 1.545-1.03 2.781-2.575 2.781"/><path fill="#faffd0" stroke="#68b6ff" stroke-width="1.97" d="M494.327 292.97v-98h37.24q8.82 2.94 15.05 10.85t6.23 19.39q0 18.76-14.84 27.58l14.14 40.18h-19.6l-11.9-35.7h-7.42v35.7Zm31.78-81.2h-12.88v29.82h12.04q2.38-.56 5.25-4.83t2.87-10.01-2.45-10.08-4.83-4.9Zm87.64 81.2h-50.82v-98h50.26v16.8h-31.08v23.38h27.72v16.24h-27.72v25.34h31.64Zm71.26 0h-18.76l-2.94-15.54h-22.12l-2.94 15.54h-19.04l18.9-98h28.98Zm-32.76-79.8h-.28l-5.46 32.62-3.08 16.66h17.5l-3.22-16.66Zm89.18 79.8h-48.3v-98h19.18v81.76h29.12Zm9.52 0v-98h37.24q8.82 2.94 15.05 10.85t6.23 19.39q0 18.76-14.84 27.58l14.14 40.18h-19.6l-11.9-35.7h-7.42v35.7Zm31.78-81.2h-12.88v29.82h12.04q2.38-.56 5.25-4.83t2.87-10.01-2.45-10.08-4.83-4.9Zm52.22-16.8h28.84q9.8 7.98 14.56 21.42t4.76 27.65-4.62 26.95-14.7 21.98h-28.84q-10.08-9.24-14.7-21.98t-4.62-26.95 4.76-27.65 14.56-21.42Zm9.38 81.76h10.08q3.5-4.06 5.95-13.23t2.45-19.39-2.38-19.25-5.88-13.09h-10.22q-3.5 4.06-5.95 13.09t-2.45 19.25 2.45 19.39 5.95 13.23Zm66.5-81.76h28.84q9.8 7.98 14.56 21.42t4.76 27.65-4.62 26.95-14.7 21.98h-28.84q-10.08-9.24-14.7-21.98t-4.62-26.95 4.76-27.65 14.56-21.42Zm9.38 81.76h10.08q3.5-4.06 5.95-13.23t2.45-19.39-2.38-19.25-5.88-13.09h-10.22q-3.5 4.06-5.95 13.09t-2.45 19.25 2.45 19.39 5.95 13.23Zm83.44-28.56h.56-.56.56l7.42-30.66 6.02-22.54h17.5l6.3 98h-18.34l-2.66-53.48h-.7l-10.08 39.48h-11.48l-10.08-39.48h-.7l-2.66 53.48h-18.34l6.3-98h17.5l6.02 22.54Z"/><rect width="560" height="158.2" x="85.917" y="-229.5" fill="none" rx="0" ry="0" transform="translate(401.49 400.87)"/></g><path fill="transparent" stroke="transparent" d="M470 0h560v494H470z"/></g></svg>