<svg xmlns="http://www.w3.org/2000/svg" xml:space="preserve" width="2000" height="1500" data-id="lg_WetARBxMTeA1GbTRev" data-version="1"><path fill="#68b6ff" stroke="transparent" d="M0 0h2000v1500H0z"/><g data-padding="20"><g transform="translate(-1254.555 -937.907)scale(2.196)"><path fill="#22586a" d="m1254.374 879.87-1.596-225.158-2.06-2.781-226.343-130.501h-4.12l-226.6 130.5-2.06 3.245 1.494 224.952 1.339 4.635 226.909 131.068h4.12l227.527-131.17Zm-10.866-222.686 1.184 215.27-220.265-126.227V530.7ZM1019.277 530.7v215.579l-162.998 94.708-54.693 31.364-.978-215.219Zm4.068 475.602-218-126.432 3.194-1.854 214.291-124.27 195.855 112.734 23.175 13.39Z"/><path fill="#22586a" d="m878.99 759.154-3.913-2.37v-83.532l1.081-2.37 82.606-48.718 3.863 2.369v83.584l-1.082 2.37Zm1.237-84.254v77.147l77.25-45.475v-77.198Zm306.425 170.156c-1.545 0-2.575-1.236-2.575-2.781v-165.83l-103-58.195v160.525c0 1.545-1.03 2.781-2.575 2.781s-2.575-1.236-2.575-2.78V613.511l4.223-2.42 107.686 61.284 1.39 2.42v167.479c0 1.545-1.03 2.78-2.574 2.78m-12.516 79.672-.721-.154L946.3 793.402a1.39 1.39 0 1 1 1.339-2.421l227.218 131.17a1.39 1.39 0 0 1-.67 2.575m-75.087 44.65-.72-.154-227.167-131.17a1.39 1.39 0 1 1 1.39-2.37l227.115 131.12a1.39 1.39 0 0 1-.618 2.575"/><path fill="#22586a" d="M873.532 924.666a1.39 1.39 0 0 1-.67-2.575l225.725-131.17a1.288 1.288 0 0 1 1.854.515c.412.618.154 1.493-.515 1.854L874.253 924.512Zm77.868 45.018a1.39 1.39 0 0 1-.721-2.575l225.724-131.222a1.34 1.34 0 0 1 1.854.515c.36.67.155 1.545-.515 1.906L952.07 969.478Zm178.602-154.963c-1.545 0-2.575-1.236-2.575-2.781V646.264c0-1.545 1.03-2.78 2.575-2.78s2.575 1.235 2.575 2.78V811.94c0 1.545-1.03 2.78-2.575 2.78"/><path fill="#faffd0" stroke="#68b6ff" stroke-width="1.97" d="M753.587 814.6v-98h37.24q8.82 2.94 15.05 10.85t6.23 19.39q0 18.76-14.84 27.58l14.14 40.18h-19.6l-11.9-35.7h-7.42v35.7Zm31.78-81.2h-12.88v29.82h12.04q2.38-.56 5.25-4.83t2.87-10.01-2.45-10.08-4.83-4.9Zm87.64 81.2h-50.82v-98h50.26v16.8h-31.08v23.38h27.72v16.24h-27.72v25.34h31.64Zm71.26 0h-18.76l-2.94-15.54h-22.12l-2.94 15.54h-19.04l18.9-98h28.98Zm-32.76-79.8h-.28l-5.46 32.62-3.08 16.66h17.5l-3.22-16.66Zm89.18 79.8h-48.3v-98h19.18v81.76h29.12Zm9.52 0v-98h37.24q8.82 2.94 15.05 10.85t6.23 19.39q0 18.76-14.84 27.58l14.14 40.18h-19.6l-11.9-35.7h-7.42v35.7Zm31.78-81.2h-12.88v29.82h12.04q2.38-.56 5.25-4.83t2.87-10.01-2.45-10.08-4.83-4.9Zm52.22-16.8h28.84q9.8 7.98 14.56 21.42t4.76 27.65-4.62 26.95-14.7 21.98h-28.84q-10.08-9.24-14.7-21.98t-4.62-26.95 4.76-27.65 14.56-21.42Zm9.38 81.76h10.08q3.5-4.06 5.95-13.23t2.45-19.39-2.38-19.25-5.88-13.09h-10.22q-3.5 4.06-5.95 13.09t-2.45 19.25 2.45 19.39 5.95 13.23Zm66.5-81.76h28.84q9.8 7.98 14.56 21.42t4.76 27.65-4.62 26.95-14.7 21.98h-28.84q-10.08-9.24-14.7-21.98t-4.62-26.95 4.76-27.65 14.56-21.42Zm9.38 81.76h10.08q3.5-4.06 5.95-13.23t2.45-19.39-2.38-19.25-5.88-13.09h-10.22q-3.5 4.06-5.95 13.09t-2.45 19.25 2.45 19.39 5.95 13.23Zm83.44-28.56h.56-.56.56l7.42-30.66 6.02-22.54h17.5l6.3 98h-18.34l-2.66-53.48h-.7l-10.08 39.48h-11.48l-10.08-39.48h-.7l-2.66 53.48h-18.34l6.3-98h17.5l6.02 22.54Z"/><rect width="560" height="158.2" x="345.177" y="292.13" fill="none" rx="0" ry="0" transform="translate(401.49 400.87)"/></g><path fill="transparent" stroke="transparent" stroke-width="2.277" d="M362.348 187.5h1275.304v1125H362.348z"/></g></svg>